<?xml version="1.0" encoding="utf-8"?>
<!-- Generator: Adobe Illustrator 21.0.2, SVG Export Plug-In . SVG Version: 6.00 Build 0)  -->
<svg version="1.1" id="Layer_1" xmlns="http://www.w3.org/2000/svg" xmlns:xlink="http://www.w3.org/1999/xlink" x="0px" y="0px"
	 viewBox="0 0 512 512" style="enable-background:new 0 0 512 512;" xml:space="preserve">
<style type="text/css">
	.st0{fill:#FFB000;}
	.st1{fill:#CE8D0B;}
	.st2{fill:#E6F3FF;}
	.st3{fill:#CFDBE6;}
	.st4{fill:#FFD15D;}
	.st5{fill:#F9B54C;}
	.st6{fill:#324A5E;}
	.st7{fill:#2B3B4E;}
</style>
<path class="st0" d="M256,512C114.8,512,0,397.2,0,256S114.8,0,256,0s256,114.8,256,256S397.2,512,256,512z"/>
<path class="st1" d="M375.5,426.7c-141.2,0-256-114.8-256-256c0-59.1,20.3-113.4,54.1-156.8C72.8,48.3,0,143.7,0,256
	c0,141.2,114.8,256,256,256c82.1,0,155-39,201.9-99.2C432,421.6,404.3,426.7,375.5,426.7z"/>
<path class="st2" d="M336.2,176.6V95.7H175.8v80.9c0,16.1,8.5,31,22.3,39.3l0,0c13.8,8.3,22.3,23.2,22.3,39.3v1.5
	c0,16.1-8.5,31-22.3,39.3l0,0c-13.8,8.3-22.3,23.2-22.3,39.3v80.9h160.3v-80.9c0-16.1-8.5-31-22.3-39.3l0,0
	c-13.8-8.3-22.3-23.2-22.3-39.3v-1.5c0-16.1,8.5-31,22.3-39.3l0,0C327.7,207.6,336.2,192.7,336.2,176.6z"/>
<path class="st3" d="M313.9,215.9L313.9,215.9c13.8-8.3,22.3-23.2,22.3-39.3V95.7h-80.7v320.6h80.7v-80.9c0-16.1-8.5-31-22.3-39.3
	l0,0c-13.8-8.3-22.3-23.2-22.3-39.3v-1.5C291.6,239.1,300.1,224.2,313.9,215.9z"/>
<path class="st4" d="M261.4,336.1l-1.1-0.5v-28.4l9.7-12.8c4.8-6.4,7.5-14.2,7.5-22.3v-16.7c0-14.5,5.1-27.9,13.4-35.3
	c8.3-7.4,13.4-20.8,13.4-35.3h-96.5c0,14.5,5.1,27.9,13.4,35.3c8.3,7.4,13.4,20.8,13.4,35.3V272c0,8,2.6,15.9,7.5,22.3l9.7,12.8
	v28.4l-1.1,0.5c-23.2,11.6-37.8,35.3-37.8,61.2v0.9h38.9v17.7h8.6v-17.7h38.9v-0.9C299.2,371.4,284.6,347.7,261.4,336.1z"/>
<path class="st5" d="M261.4,336.1l-1.1-0.5v-28.4l9.7-12.8c4.8-6.4,7.5-14.2,7.5-22.3v-16.7c0-14.5,5.1-27.9,13.4-35.3
	s13.4-20.8,13.4-35.3h-48.8v231.2h4.9v-17.7h38.9v-0.9C299.2,371.4,284.6,347.7,261.4,336.1z"/>
<g>
	<rect x="170.7" y="398.2" class="st6" width="170.7" height="28.4"/>
	<rect x="170.7" y="85.3" class="st6" width="170.7" height="28.4"/>
</g>
<g>
	<rect x="255.4" y="398.2" class="st7" width="85.9" height="28.4"/>
	<rect x="255.4" y="85.3" class="st7" width="85.9" height="28.4"/>
</g>
</svg>
